<svg width="62" height="62" viewBox="0 0 62 62" fill="none" xmlns="http://www.w3.org/2000/svg">
<path d="M44.5024 7.75C44.196 7.7579 43.8914 7.79882 43.5938 7.87206L12.1094 16.1646C10.8649 16.494 9.76358 17.2242 8.97562 18.2423C8.18766 19.2603 7.75693 20.5095 7.75 21.7969V48.4375C7.75 51.6247 10.3753 54.25 13.5625 54.25H48.4375C51.6247 54.25 54.25 51.6247 54.25 48.4375V23.25C54.25 20.0628 51.6247 17.4375 48.4375 17.4375H22.5234L44.5625 11.625V15.5H48.4375V11.625C48.4375 9.44531 46.5833 7.719 44.5024 7.75ZM13.5625 21.3125H48.4375C49.5341 21.3125 50.375 22.1534 50.375 23.25V48.4375C50.375 49.5341 49.5341 50.375 48.4375 50.375H13.5625C12.4659 50.375 11.625 49.5341 11.625 48.4375V23.25C11.625 22.1534 12.4659 21.3125 13.5625 21.3125ZM43.5938 32.9375C42.823 32.9375 42.0837 33.2437 41.5387 33.7887C40.9937 34.3337 40.6875 35.073 40.6875 35.8437C40.6875 36.6145 40.9937 37.3537 41.5387 37.8988C42.0837 38.4438 42.823 38.75 43.5938 38.75C44.3645 38.75 45.1038 38.4438 45.6488 37.8988C46.1938 37.3537 46.5 36.6145 46.5 35.8437C46.5 35.073 46.1938 34.3337 45.6488 33.7887C45.1038 33.2437 44.3645 32.9375 43.5938 32.9375Z" fill="white"/>
</svg>
